<svg version="1.1" viewBox="0.0 0.0 157.748031496063 151.58005249343833" fill="none" stroke="none" stroke-linecap="square" stroke-miterlimit="10" xmlns:xlink="http://www.w3.org/1999/xlink" xmlns="http://www.w3.org/2000/svg"><clipPath id="p.0"><path d="m0 0l157.74803 0l0 151.58005l-157.74803 0l0 -151.58005z" clip-rule="nonzero"/></clipPath><g clip-path="url(#p.0)"><path fill="#000000" fill-opacity="0.0" d="m0 0l157.74803 0l0 151.58005l-157.74803 0z" fill-rule="evenodd"/><path fill="#ffffff" d="m0 0l157.76378 0l0 141.29134l-157.76378 0z" fill-rule="evenodd"/><path fill="#aa1c1c" d="m0 135.29134l157.76378 0l0 17.51181l-157.76378 0z" fill-rule="evenodd"/><path fill="#000000" fill-opacity="0.0" d="m11.92126 30.188976l133.92125 0l0 112.913376l-133.92125 0z" fill-rule="evenodd"/><path fill="#000000" d="m58.616264 86.8613q-8.203125 0 -12.5625 -4.65625q-4.359375 -4.671875 -4.359375 -13.1875l0 -37.28125q0 -8.515625 4.359375 -13.171875q4.359375 -4.65625 12.5625 -4.65625q8.203125 0 12.5625 4.65625q4.359375 4.65625 4.359375 13.171875l0 37.28125q0 8.515625 -4.359375 13.1875q-4.359375 4.65625 -12.5625 4.65625zm0 -10.140625q5.78125 0 5.78125 -6.984375l0 -38.703125q0 -7.0 -5.78125 -7.0q-5.78125 0 -5.78125 7.0l0 38.703125q0 6.984375 5.78125 6.984375zm40.53125 10.140625q-8.40625 0 -12.921875 -4.5q-4.5 -4.515625 -4.5 -13.03125l0 -6.28125q0 -5.265625 1.71875 -8.859375q1.71875 -3.609375 5.578125 -5.625l0 -0.203125q-3.546875 -1.9375 -5.21875 -5.328125q-1.671875 -3.390625 -1.671875 -8.65625l0 -2.9375q0 -8.515625 4.40625 -13.015625q4.40625 -4.515625 12.609375 -4.515625q8.203125 0 12.609375 4.515625q4.40625 4.5 4.40625 13.015625l0 2.9375q0 10.125 -6.875 13.984375l0 0.203125q3.84375 2.015625 5.5625 5.625q1.71875 3.59375 1.71875 8.859375l0 6.28125q0 8.515625 -4.515625 13.03125q-4.5 4.5 -12.90625 4.5zm0 -43.0625q5.875 0 5.875 -7.09375l0 -5.578125q0 -7.09375 -5.875 -7.09375q-5.875 0 -5.875 7.09375l0 5.578125q0 7.09375 5.875 7.09375zm0 32.921875q6.28125 0 6.28125 -8.0l0 -6.78125q0 -8.015625 -6.28125 -8.015625q-6.28125 0 -6.28125 8.015625l0 6.78125q0 8.0 6.28125 8.0z" fill-rule="nonzero"/><path fill="#000000" d="m58.999763 128.65717q-1.359375 0 -2.3125 -0.1875l0 -4.5312424q0.734375 0.1875 1.640625 0.1875q1.5 0 2.21875 -0.75q0.71875 -0.75 0.71875 -2.296875l0 -24.34375l5.0 0l0 24.203125q0 3.90625 -1.796875 5.8125q-1.796875 1.9062424 -5.46875 1.9062424zm18.090088 0.265625q-3.625 0 -5.53125 -2.0624924q-1.90625 -2.0625 -1.90625 -5.921875l0 -24.203125l4.984375 0l0 24.578125q0 1.625 0.65625 2.359375q0.671875 0.71875 1.890625 0.71875q1.21875 0 1.875 -0.71875q0.65625 -0.734375 0.65625 -2.359375l0 -24.578125l4.8125 0l0 24.203125q0 3.859375 -1.90625 5.921875q-1.90625 2.0624924 -5.53125 2.0624924zm10.971909 -32.187492l4.984375 0l0 27.203125l8.203125 0l0 4.5312424l-13.1875 0l0 -31.734367z" fill-rule="nonzero"/></g></svg>