<svg version="1.1" viewBox="0.0 0.0 157.748031496063 151.58005249343833" fill="none" stroke="none" stroke-linecap="square" stroke-miterlimit="10" xmlns:xlink="http://www.w3.org/1999/xlink" xmlns="http://www.w3.org/2000/svg"><clipPath id="p.0"><path d="m0 0l157.74803 0l0 151.58005l-157.74803 0l0 -151.58005z" clip-rule="nonzero"/></clipPath><g clip-path="url(#p.0)"><path fill="#000000" fill-opacity="0.0" d="m0 0l157.74803 0l0 151.58005l-157.74803 0z" fill-rule="evenodd"/><path fill="#ffffff" d="m0 0l157.76378 0l0 141.29134l-157.76378 0z" fill-rule="evenodd"/><path fill="#aa1c1c" d="m0 135.29134l157.76378 0l0 17.51181l-157.76378 0z" fill-rule="evenodd"/><path fill="#000000" fill-opacity="0.0" d="m11.92126 30.188976l133.92125 0l0 112.913376l-133.92125 0z" fill-rule="evenodd"/><path fill="#000000" d="m58.616264 86.8613q-8.203125 0 -12.5625 -4.65625q-4.359375 -4.671875 -4.359375 -13.1875l0 -37.28125q0 -8.515625 4.359375 -13.171875q4.359375 -4.65625 12.5625 -4.65625q8.203125 0 12.5625 4.65625q4.359375 4.65625 4.359375 13.171875l0 37.28125q0 8.515625 -4.359375 13.1875q-4.359375 4.65625 -12.5625 4.65625zm0 -10.140625q5.78125 0 5.78125 -6.984375l0 -38.703125q0 -7.0 -5.78125 -7.0q-5.78125 0 -5.78125 7.0l0 38.703125q0 6.984375 5.78125 6.984375zm40.828125 10.140625q-8.203125 0 -12.5625 -4.65625q-4.359375 -4.671875 -4.359375 -13.1875l0 -36.671875q0 -18.4375 17.03125 -18.4375q8.109375 0 12.359375 4.609375q4.25 4.609375 4.25 13.21875l0 1.3125l-10.53125 0l0 -2.015625q0 -7.0 -5.78125 -7.0q-3.140625 0 -4.65625 1.9375q-1.515625 1.921875 -1.515625 6.78125l0 13.578125l0.203125 0q2.9375 -6.1875 10.125 -6.1875q6.078125 0 9.21875 4.15625q3.140625 4.15625 3.140625 12.0625l0 12.65625q0 8.515625 -4.359375 13.1875q-4.34375 4.65625 -12.5625 4.65625zm0 -10.140625q5.78125 0 5.78125 -6.890625l0 -12.5625q0 -6.984375 -5.78125 -6.984375q-5.765625 0 -5.765625 6.984375l0 12.5625q0 6.890625 5.765625 6.890625z" fill-rule="nonzero"/><path fill="#000000" d="m58.999763 128.65717q-1.359375 0 -2.3125 -0.1875l0 -4.5312424q0.734375 0.1875 1.640625 0.1875q1.5 0 2.21875 -0.75q0.71875 -0.75 0.71875 -2.296875l0 -24.34375l5.0 0l0 24.203125q0 3.90625 -1.796875 5.8125q-1.796875 1.9062424 -5.46875 1.9062424zm18.090088 0.265625q-3.625 0 -5.53125 -2.0624924q-1.90625 -2.0625 -1.90625 -5.921875l0 -24.203125l4.984375 0l0 24.578125q0 1.625 0.65625 2.359375q0.671875 0.71875 1.890625 0.71875q1.21875 0 1.875 -0.71875q0.65625 -0.734375 0.65625 -2.359375l0 -24.578125l4.8125 0l0 24.203125q0 3.859375 -1.90625 5.921875q-1.90625 2.0624924 -5.53125 2.0624924zm10.971909 -32.187492l4.984375 0l0 27.203125l8.203125 0l0 4.5312424l-13.1875 0l0 -31.734367z" fill-rule="nonzero"/></g></svg>